# xmcd
#
# Track frame offsets: 
#        183
#        12060
#        26988
#        42055
#        59253
#        71680
#        90513
#        100788
#        114385
#        128593
#        141138
#        152085
#        165958
#
# Disc length: 2416 seconds
#
# Revision: 0
# Processed by: cddbd v1.5.2PL0 Copyright (c) Steve Scherf et al.
# Submitted via: ExactAudioCopyFreeDBPlugin 1.0
#
DISCID=9a096e0d
DTITLE=Jiří Zima - Country Story - steelkytara
DYEAR=1992
DGENRE=Country
TTITLE0=Country roads take me home
TTITLE1=Danny boy
TTITLE2=500 miles - 1000mil
TTITLE3=Allways on my mind - Dej mi šanci poslední
TTITLE4=Casey Jones
TTITLE5=Amazing grace - Už z hor zní zvon
TTITLE6=Six days on the road - Šest dní na silnici
TTITLE7=Red river walley - Červená řeka
TTITLE8=Green fields - Zelený pláně
TTITLE9=Crying time - Jsem na světě rád
TTITLE10=San Antonio rose - Růže ze San Antonia
TTITLE11=Song for Sara - Píseň pro Sáru
TTITLE12=High noon - V pravé poledne
EXTD=
EXTT0=
EXTT1=
EXTT2=
EXTT3=
EXTT4=
EXTT5=
EXTT6=
EXTT7=
EXTT8=
EXTT9=
EXTT10=
EXTT11=
EXTT12=
PLAYORDER=
